<svg style="position: absolute; width: 0; height: 0; overflow: hidden;" version="1.1" xmlns="http://www.w3.org/2000/svg" xmlns:xlink="http://www.w3.org/1999/xlink">
<defs>
<style>.opacity{opacity:.5;}</style>
<symbol id="icon-share" viewBox="0 0 60 60">
<polygon points="52 28 52 52 8 52 8 8 32 8 32 4 4 4 4 56 56 56 56 28 52 28"/><polygon points="36.54 7.88 50.36 6.82 27.2 29.98 30.02 32.81 53.19 9.64 52.13 23.46 55.53 23.68 57 4.7 55.3 3 36.33 4.47 36.54 7.88"/>
</symbol>
<symbol id="icon-external" viewBox="0 0 60 60">
<polygon points="44 24.48 44 52 8 52 8 16 35.52 16 39.52 12 4 12 4 56 48 56 48 20.48 44 24.48"/><polygon points="32 8 49 8 23 34 26 37 52 11 52 28 56 28 56 6 54 4 32 4 32 8"/>
</symbol>
<symbol id="icon-podcast" viewBox="0 0 60 60">
<polygon points="43.32 16.42 34.77 12 24.43 12 16.28 16.42 12 24.71 12 35.05 16.28 43.47 18.91 44.93 19.4 42.73 17.88 41.86 14 34.37 14 25.41 17.88 18.02 25.12 14 34.08 14 41.72 18.02 46 25.41 46 34.37 41.72 41.86 40.56 42.49 41.04 44.67 43.32 43.47 48 35.05 48 24.71 43.32 16.42"/><polygon points="50.33 9.41 37.07 2 22.13 2 9.27 9.41 2 22.42 2 37.35 9.27 50.48 16.71 54.83 17.96 49.2 13.14 46.6 8 36.36 8 23.41 13.14 13.29 23.13 8 36.07 8 46.46 13.29 52 23.41 52 36.36 46.46 46.6 41.99 48.93 43.23 54.51 50.33 50.48 58 37.35 58 22.42 50.33 9.41"/><polygon points="40 32.67 40 27.33 37.33 22.67 32.67 20 27.33 20 22.67 22.67 20 27.33 20 32.67 22.67 37.33 27.33 40 24 40 22 42 22 58 38 58 38 42 36 40 32.67 40 37.33 37.33 40 32.67"/>
</symbol>
<symbol id="icon-apple-podcast" viewBox="0 0 60 60">
<path d="M43.81,4H16.19A12.19,12.19,0,0,0,4,16.19V43.81A12.19,12.19,0,0,0,16.19,56H43.81A12.19,12.19,0,0,0,56,43.81V16.19A12.19,12.19,0,0,0,43.81,4ZM33,48.08a3,3,0,0,1-3,1.78,3,3,0,0,1-3-1.78,47.35,47.35,0,0,1-1.42-12.63c0-1.63,2-2.94,4.42-2.94s4.42,1.31,4.42,2.94A47.35,47.35,0,0,1,33,48.08ZM23.15,35.19a1,1,0,0,1,.24.52c0,.8,0,1.58.05,2.33,0,.11-.08.14-.2.13A12.23,12.23,0,1,1,37,38l-.08,0h-.09c-.12,0-.17-.06-.2-.13s0,0,0-.08c0-.62,0-1.26,0-1.91a1.69,1.69,0,0,1,.33-.85h0a10,10,0,1,0-13.79.09Zm11.1-8.71A4.25,4.25,0,1,1,30,22.23,4.25,4.25,0,0,1,34.25,26.48Zm2,18.72a.24.24,0,0,1-.3-.24c.09-.58.17-1.2.25-1.87,0-.08.09-.16.12-.24a1,1,0,0,1,.35-.27h0a16,16,0,1,0-13.11.08.57.57,0,0,1,.29.35c.09.7.18,1.34.27,1.94a.24.24,0,0,1-.25.28,18.3,18.3,0,1,1,12.37,0Z"/>
</symbol>
<symbol id="icon-facebook" viewBox="0 0 60 60">
<path d="M53.13,4H6.87A2.88,2.88,0,0,0,4,6.87V53.13A2.88,2.88,0,0,0,6.87,56H32V36H25V28h7V22.23c0-6.72,4-10.38,10-10.38,2.87,0,5,.22,6,.31v7H43.87C40.61,19.18,40,20.73,40,23v5h7.65l-1,8H40V56H53.13A2.88,2.88,0,0,0,56,53.13V6.87A2.88,2.88,0,0,0,53.13,4Z"/>
</symbol>
<symbol id="icon-comments" viewBox="0 0 60 60">
<polygon points="36.06 57.69 33.94 54.3 41.37 49.66 44.61 41 52 41 52 9 8 9 8 41 38 41 38 45 4 45 4 5 56 5 56 45 47.39 45 44.63 52.33 36.06 57.69"/>
</symbol>
<symbol id="icon-play" viewBox="0 0 60 60">
<polygon points="6 58 58 30.02 6.11 2 9 23.91 9 23.9 6.1 29.94 8.81 35.97 8.8 35.97 6 58"/>
</symbol>
<symbol id="icon-pause" viewBox="0 0 60 60">
<rect x="10" y="6" width="15" height="48"/><rect x="35" y="6" width="15" height="48"/>
</symbol>
<symbol id="icon-rotate-device" viewBox="0 0 60 60">
<path d="M11,2V58H49V2ZM31.5,55.9l-.4.7-.7.4h-.8l-.7-.4-.4-.7v-.8l.4-.7.7-.4h.8l.7.4.4.7ZM47,53H13V7H47Z"/><polygon points="40.11 30 40.11 27.04 37.15 21.85 31.96 18.89 26.04 18.89 20.85 21.85 17.89 27.04 17.89 32.96 20.85 38.15 26.04 41.11 31.67 41.11 31.67 38.89 26.63 38.89 22.48 36.52 20.11 32.37 20.11 27.63 22.48 23.48 26.63 21.11 31.37 21.11 35.52 23.48 37.89 27.63 37.89 30 34 30 39 35 44 30 40.11 30"/>
</symbol>
<symbol id="icon-live" viewBox="0 0 60 60">
<polygon points="23.11 44.84 17.89 42.1 14 34.69 14 25.31 17.89 17.9 24.92 14.2 24.3 12.26 16.43 16.43 12 24.78 12 35.22 16.43 43.57 22.26 46.66 23.11 44.84"/><polygon points="43.56 16.43 35.7 12.26 35.08 14.2 42.11 17.9 46 25.31 46 34.69 42.11 42.1 36.89 44.84 37.74 46.66 43.56 43.57 48 35.22 48 24.78 43.56 16.43"/><polygon points="20.59 50.26 13.56 46.43 8 36.22 8 23.78 13.56 13.57 23.06 8.4 21.24 2.74 9.47 9.47 2 22.53 2 37.47 9.47 50.53 18.16 55.5 20.59 50.26"/><polygon points="50.53 9.47 38.76 2.74 36.94 8.4 46.44 13.57 52 23.78 52 36.22 46.44 46.43 39.41 50.26 41.84 55.5 50.53 50.53 58 37.47 58 22.53 50.53 9.47"/><polygon points="35.87 24.13 32.13 22 27.87 22 24.13 24.13 22 27.87 22 32.13 24.13 35.87 27.87 38 28 38 28 58 32 58 32 38 32.13 38 35.87 35.87 38 32.13 38 27.87 35.87 24.13"/>
</symbol>
<symbol id="icon-default" viewBox="0 0 60 60">
<polygon points="58 29.7 6 1.22 8.78 23.43 58 29.7"/><polygon points="6.1 30.23 8.72 36.12 54.92 30.23 6.1 30.23"/><polygon points="54.92 29.77 8.71 23.88 6.1 29.77 54.92 29.77"/><polygon points="8.78 36.58 6 58.78 57.99 30.31 8.78 36.58"/>
</symbol>
<symbol id="icon-backward-10" viewBox="0 0 60 60"><polygon points="46.87 14.13 36.13 8 32 8 32 3 25 10 32 17 32 12 35.07 12 43.93 17.07 49 25.93 49 36.07 43.93 44.93 35.07 50 24.93 50 16.07 44.93 11 36.07 11 31 7 31 7 37.13 13.14 47.87 23.86 54 36.13 54 46.87 47.87 53 37.13 53 24.86 46.87 14.13"/><polygon points="18 10 25 17 25 10 25 3 18 10"/><path d="M21.19,27.32l-1.76-1.76L23,22h2.12V35.63h2.28V38H20.24V35.63h2.28V26.51l.11-.75-.09,0-.54.79Z"/><path d="M37.73,22l2.84,2.59V35.41L37.73,38H31.8L29,35.41V24.59L31.8,22ZM31.56,33l5.16-8.63H32.84l-1.28,1.19ZM38,34.44V27l-5.16,8.63h3.87Z"/></symbol>
<symbol id="icon-backward-30" viewBox="0 0 60 60">
<polygon points="46.87 14.13 36.13 8 32 8 32 3 25 10 32 17 32 12 35.07 12 43.93 17.07 49 25.93 49 36.07 43.93 44.93 35.07 50 24.93 50 16.07 44.93 11 36.07 11 31 7 31 7 37.13 13.14 47.87 23.86 54 36.13 54 46.87 47.87 53 37.13 53 24.86 46.87 14.13"/><polygon points="18 10 25 17 25 10 25 3 18 10"/><path d="M25.87,28.76l2.55,2.53v4.18L25.87,38h-6l-2.69-.92.77-2.23,2.42.84h4.41l1.12-1.1V32.17l-1.12-1.1H20.41V28.93l3.89-3.74.77-.52,0-.09-.73.11H17.55V22.38H28.42v2.07l-4,3.8-.77.53,0,.09.73-.11Z"/><path d="M39,22.38l2.77,2.53V35.47L39,38H33.17L30.4,35.47V24.91l2.77-2.53Zm-6,10.74,5-8.43H34.18l-1.25,1.16Zm6.27,1.4V27.26l-5,8.43h3.78Z"/>
</symbol>
<symbol id="icon-forward-30" viewBox="0 0 60 60">
<polygon points="49 31 49 36.07 43.93 44.93 35.07 50 24.93 50 16.07 44.93 11 36.07 11 25.93 16.07 17.07 24.93 12 28 12 28 17 35 10 28 3 28 8 23.86 8 13.13 14.13 7 24.86 7 37.13 13.13 47.87 23.86 54 36.14 54 46.86 47.87 53 37.13 53 31 49 31"/><polygon points="42 10 35 3 35 10 35 17 42 10"/><path d="M25.86,28.76l2.56,2.53v4.18L25.86,38h-6l-2.69-.92.77-2.23,2.42.84h4.4l1.13-1.1V32.17l-1.13-1.1H20.41V28.93l3.89-3.74.77-.52,0-.09-.73.11H17.55V22.38H28.42v2.07l-4,3.8-.77.53,0,.09.73-.11Z"/><path d="M39,22.38l2.77,2.53V35.47L39,38H33.17L30.4,35.47V24.91l2.77-2.53Zm-6,10.74,5-8.43H34.18l-1.25,1.16Zm6.27,1.4V27.26l-5,8.43h3.78Z"/>
</symbol>
<symbol id="icon-loop" viewBox="0 0 60 60">
<path d="M24.93,49l-8.86-5.07L11,35.07V24.93l2.89-5.05L19,25V12H6L11,17,7,23.87V36.13l6.14,10.74L23.86,53H36V49ZM13,19Z"/><path d="M49.05,43.05l4-6.92V23.87L46.87,13.13,36.13,7H24v4H35.07l8.86,5.07L49,24.93V35.07l-2.89,5L41,35V48H54Zm-2-2Z"/>
</symbol>
<symbol id="icon-heart" viewBox="0 0 60 60">
<polygon points="29.97 10.76 36.75 4 47.17 4 57 13.83 57 31.65 30 58 3 31.65 3 13.83 12.76 4 23.25 4 29.97 10.76"/>
</symbol>
<symbol id="icon-murmures" viewBox="0 0 60 60"><path d="M30,2A28,28,0,0,0,2,30H2a28,28,0,0,0,56,0h0A28,28,0,0,0,30,2ZM21.74,42.84a1,1,0,0,0-.34.11l-5,1.87a1.47,1.47,0,0,1-2-1.36V19A2.4,2.4,0,0,1,16,16.76l5.37-2a3.38,3.38,0,0,0,.34-.11Zm7.81,2.49a.85.85,0,0,1-.34-.11L23.16,43a3.38,3.38,0,0,1-.34-.11V14.67a1,1,0,0,1,.34.11l6.05,2.27c.11.05.22.05.34.11Zm7.75-2.49A.85.85,0,0,0,37,43l-6.05,2.27a3.38,3.38,0,0,0-.34.11V17.16a1,1,0,0,0,.34-.11L37,14.78c.11,0,.22,0,.34-.11Zm8.26.62a1.47,1.47,0,0,1-2,1.36L38.6,43a3.38,3.38,0,0,1-.34-.11V14.67a1,1,0,0,1,.34.11l5.37,2A2.4,2.4,0,0,1,45.56,19Z"/></symbol>
<symbol id="icon-place" viewBox="0 0 60 60"><use href="#icon-murmures" xlink:href="#icon-murmures"></use></symbol>
<symbol id="icon-bug" viewBox="0 0 60 60">
<polygon points="45.06 14.38 44.63 13.63 35.32 8.3 24.68 8.3 15.37 13.63 14.94 14.38 18.11 19.94 25.68 24.27 34.32 24.27 41.88 19.94 45.06 14.38"/><polygon points="49.95 32 57.93 32 57.93 28 49.95 28 49.95 22.93 49.52 22.18 53.94 14.44 53.94 1.67 49.95 2.73 49.95 13.38 44.63 22.68 35.32 28 24.68 28 15.37 22.68 10.05 13.38 10.05 2.73 6.06 1.67 6.06 14.44 10.48 22.18 10.05 22.93 10.05 28 2.07 28 2.07 32 10.05 32 10.05 33.58 11.48 36.08 6.06 45.56 6.06 58.33 10.05 57.27 10.05 46.62 13.78 40.1 15.37 42.88 24.68 48.2 35.32 48.2 44.63 42.88 46.22 40.1 49.95 46.62 49.95 57.27 53.94 58.33 53.94 45.56 48.52 36.08 49.95 33.58 49.95 32"/>
</symbol>
<symbol id="icon-location" viewBox="0 0 60 60">
<path d="M49,26.07V15.93L43.93,7.07,35.07,2H24.93L16.07,7.07,11,15.93V26.07l5.07,8.86h0L30,59,43.93,34.93h0ZM36,22.6l-1.6,2.8L31.6,27H28.4l-2.8-1.6L24,22.6V19.4l1.6-2.8L28.4,15h3.2l2.8,1.6L36,19.4Z"/>
</symbol>
<symbol id="icon-map" viewBox="0 0 60 60">
<polygon points="46 10.03 20.89 47 56 47 56 4 46 4 46 10.03"/><polygon points="42 8.79 42 4 32 4 32 9.14 37.82 14.95 42 8.79"/><path d="M35.53,18.32,28,10.79V4H4V56H9.94ZM13,32l9.52-7.24,3.56,2.38L13,45Z"/><polygon points="18.18 51 14.78 56 56 56 56 51 18.18 51"/>
</symbol>
<symbol id="icon-grid" viewBox="0 0 60 60">
<rect x="4" y="4" width="24" height="24"/><rect x="32" y="4" width="24" height="24"/><rect x="4" y="32" width="24" height="24"/><rect x="32" y="32" width="24" height="24"/>
</symbol>
<symbol id="icon-list" viewBox="0 0 60 60">
<rect x="4" y="23" width="52" height="14"/><rect x="4" y="4" width="52" height="15"/><rect x="4" y="41" width="52" height="15"/>
</symbol>
<symbol id="icon-list-detail" viewBox="0 0 60 60">
<rect x="4" y="4" width="52" height="24"/><rect x="4" y="32" width="52" height="24"/>
</symbol>
<symbol id="icon-column-size" viewBox="0 0 60 60">
<polygon points="18 4 18 28 19 28 25 22 25 28 35 28 35 22 41 28 42 28 42 4 18 4"/><polygon points="25 32 25 38 19 32 18 32 18 56 42 56 42 32 41 32 35 38 35 32 25 32"/><rect x="4" y="4" width="10" height="52"/><rect x="46" y="4" width="10" height="52"/>
</symbol>
<symbol id="icon-search" viewBox="0 0 60 60">
<path d="M58,52.34,42.46,36.8,46,30.6V19.4L40.4,9.6,30.6,4H19.4L9.6,9.6,4,19.4V30.6l5.6,9.8L19.4,46H30.6l6.2-3.54L52.34,58ZM29.54,42H20.46l-7.93-4.53L8,29.54V20.46l4.53-7.93L20.46,8h9.08l7.93,4.53L42,20.46v9.08l-4.53,7.93Z"/>
</symbol>
<symbol id="icon-search-song" viewBox="0 0 60 60">
<path d="M58,52.34,42.46,36.8,46,30.6V19.4L40.4,9.6,30.6,4H19.4L9.6,9.6,4,19.4V30.6l5.6,9.8L19.4,46H30.6l6.2-3.54L52.34,58ZM29.54,42H20.46l-7.93-4.53L8,29.54V20.46l4.53-7.93L20.46,8h9.08l7.93,4.53L42,20.46v9.08l-4.53,7.93Z"/><polygon points="19 16 19 30.11 18.8 30 17.2 30 15.8 30.8 15 32.2 15 33.8 15.8 35.2 17.2 36 18.8 36 20.2 35.2 21 33.8 21 33 21 32.2 21 19.72 31 18.05 31 28.11 30.8 28 29.2 28 27.8 28.8 27 30.2 27 31.8 27.8 33.2 29.2 34 30.8 34 32.2 33.2 33 31.8 33 31 33 30.2 33 17.72 33 14 33 13.67 19 16"/>
</symbol>
<symbol id="icon-arrow-left" viewBox="0 0 60 60"><polygon points="42.7 55.52 14.7 31.52 14.7 28.48 42.7 4.48 45.3 7.51 19.07 30 45.3 52.48 42.7 55.52"/></symbol>
<symbol id="icon-arrow-right" viewBox="0 0 60 60"><polygon points="17.3 55.52 14.7 52.48 40.93 30 14.7 7.52 17.3 4.49 45.3 28.48 45.3 31.52 17.3 55.52"/></symbol>
<symbol id="icon-arrow-up" viewBox="0 0 60 60"><polygon points="52.48 45.3 30 19.07 7.52 45.3 4.49 42.7 28.48 14.7 31.52 14.7 55.52 42.7 52.48 45.3"/></symbol>
<symbol id="icon-arrow-down" viewBox="0 0 60 60"><polygon points="31.52 45.3 28.48 45.3 4.48 17.3 7.51 14.7 30 40.93 52.48 14.7 55.52 17.3 31.52 45.3"/></symbol>
<symbol id="icon-user" viewBox="0 0 60 60"><polygon points="55.46 46.25 52.56 42.63 36.52 37.58 36.52 33.25 38.7 28.55 38.7 27.11 39.79 27.11 40.51 23.5 40.51 19.89 39.3 19.89 40.51 16.27 40.51 9.77 38.34 7.61 36.16 7.61 39.79 4 27.1 4 23.48 7.61 21.66 7.61 19.49 9.77 19.49 16.27 20.81 19.89 19.49 19.89 19.49 23.5 20.21 27.11 21.3 27.11 21.3 28.55 23.48 33.25 23.48 37.58 7.44 42.63 4.54 46.25 2 56 28.91 56 31.09 56 58 56 55.46 46.25"/></symbol>
<symbol id="icon-tags" viewBox="0 0 60 60">
<path d="M57.39,35.61,25.78,4H4V25.78L35.61,57.39ZM20,17.07l-1.07,1.86L17.07,20H14.93l-1.86-1.07L12,17.07V14.93l1.07-1.86L14.93,12h2.14l1.86,1.07L20,14.93Z"/>
</symbol>
<symbol id="icon-category" viewBox="0 0 60 60">
<polygon points="4 6 4 50 50 50 60 20 18.5 20 11 45 6.8 45 15 16 47 16 47 12 24 12 20 6 4 6"/>
</symbol>
<symbol id="icon-playlist" viewBox="0 0 60 60">
<rect x="30" y="9" width="26" height="9"/><rect x="4" y="9" width="6" height="9"/><rect x="22" y="27" width="34" height="9"/><rect x="4" y="45" width="52" height="9"/><polygon points="18.83 2 18 2 16 2 14 2 14 25.65 12.87 25 9.13 25 5.87 26.87 4 30.13 4 33.87 5.87 37.13 9.13 39 12.87 39 16.13 37.13 18 33.87 18 32 18 30.13 18 6.83 22 10.83 22 18 26 18 26 9.17 18.83 2"/>
</symbol>
<symbol id="icon-forward-10" viewBox="0 0 60 60">
<polygon points="49 31 49 36.07 43.93 44.93 35.07 50 24.93 50 16.07 44.93 11 36.07 11 25.93 16.07 17.07 24.93 12 28 12 28 17 35 10 28 3 28 8 23.86 8 13.13 14.13 7 24.86 7 37.13 13.13 47.87 23.86 54 36.14 54 46.86 47.87 53 37.13 53 31 49 31"/><polygon points="42 10 35 3 35 10 35 17 42 10"/>
<path d="M21.19,27.32l-1.76-1.76L23,22h2.12V35.63h2.28V38H20.24V35.63h2.28V26.51l.11-.75-.09,0-.54.79Z"/><path d="M37.73,22l2.84,2.59V35.41L37.73,38H31.8L29,35.41V24.59L31.8,22ZM31.56,33l5.16-8.63H32.84l-1.28,1.19ZM38,34.44V27l-5.16,8.63h3.87Z"/>
</symbol>
<symbol id="icon-show-sidebar" viewBox="0 0 60 60">
<path d="M4,4V56H56V4ZM52,52H37V33H30v5l-8-8,8-8v5h7V8H52Z"/>
</symbol>
<symbol id="icon-program" viewBox="0 0 60 60"><polygon points="41.42 56.26 38.42 57.26 38.36 57.28 38.31 57.28 33.06 57.85 33.03 57.86 33 57.86 27 57.86 26.97 57.86 26.94 57.85 21.69 57.28 21.64 57.28 21.58 57.26 18.58 56.26 18.36 56.19 18.21 57.26 18.21 58.41 21.36 59.42 26.86 60 33.15 60 38.64 59.42 41.79 58.41 41.79 57.26 41.64 56.19 41.42 56.26"/><path d="M31.82,47.75V40.18H28.18v7.57l-.32.31V54.3l.57.22,1,.12h1.14l1-.12.57-.22V48.06Z"/><polygon points="38.25 53.61 33 53.04 32.68 53.04 32.68 53.8 32.68 54.3 32.68 54.67 32.33 54.8 31.76 55.02 31.7 55.04 31.64 55.05 30.64 55.17 30.61 55.18 30.57 55.18 29.43 55.18 29.39 55.18 29.36 55.17 28.36 55.05 28.3 55.04 28.24 55.02 27.67 54.8 27.32 54.67 27.32 54.3 27.32 53.8 27.32 53.04 27 53.04 21.75 53.61 18.75 54.61 18.75 55.75 21.75 56.75 27 57.32 33 57.32 38.25 56.75 41.25 55.75 41.25 54.61 38.25 53.61"/><path d="M39.11,20.89h-.54l-.53.54V32.15l-2.15,3.74L32.14,38H27.86l-3.75-2.15L22,32.15V21.43l-.53-.54h-.54l-.53.54v3.21l.53.54v7.25l2.43,4.25,4,2.28v.15l.54.53h4.28l.54-.53V39l4-2.28,2.43-4.25V25.18l.53-.54V21.43Z"/><polygon class="opacity" points="35.5 1.98 32 0 28 0 24.5 1.98 22.5 5.44 22.5 20.89 37.5 20.89 37.5 5.44 35.5 1.98"/><path d="M37,25.18H23v5.36H37Zm-5.08,2.66-3.05-.39-.17-1.37Zm-3.21,0,.16-.36,2.85.36Zm3,0-2.85.37-.16-.37Zm-3,1.77.17-1.38,3-.38Z"/><polygon points="23.04 31.07 22.5 31.07 22.5 31.53 24.5 34.99 28 36.96 32 36.96 35.5 34.99 37.5 31.53 37.5 31.07 36.96 31.07 23.04 31.07"/><polygon points="22.5 24.64 23.04 24.64 36.96 24.64 37.5 24.64 37.5 21.43 22.5 21.43 22.5 24.64"/></symbol>
<symbol id="icon-archive" viewBox="0 0 60 60"><rect x="23" y="4" width="33" height="15"/><rect x="23" y="42" width="33" height="15"/><rect x="23" y="23" width="33" height="15"/><path d="M4,4V19H19V4ZM7.9,15.7l.42-3.3h0l-.41-.9.44-.9L7.91,7.32l7.77,4.19Z"/><path d="M4,23V38H19V23ZM7.9,34.7l.42-3.3h0l-.41-.9.44-.9-.44-3.28,7.77,4.19Z"/><path d="M4,42V57H19V42ZM7.9,53.7l.42-3.3h0l-.41-.9.44-.9-.44-3.28,7.77,4.19Z"/></symbol>
<symbol id="icon-today" viewBox="0 0 60 60"><path d="M36.67,55H23.33L11.67,48.33,5,36.67V23.33l6.67-11.66L23.33,5H36.67l11.66,6.67L55,23.33V36.67L48.33,48.33ZM24.39,51H35.61l9.79-5.6L51,35.61V24.39L45.4,14.6,35.61,9H24.39L14.6,14.6,9,24.39V35.61l5.6,9.79Z"/></symbol>
<symbol id="icon-rebroadcasting" viewBox="0 0 60 60"><path d="M3,30,31.86,5,36,9.71,12.62,30,36,50.29,31.86,55Zm21.05,0L52.9,5,57,9.71,33.67,30,57,50.29,52.9,55Z"/></symbol>
<symbol id="icon-album" viewBox="0 0 60 60"><rect x="4" y="4" width="44" height="44"/><polygon points="52 12 52 52 12 52 12 56 52 56 56 56 56 52 56 12 52 12"/></symbol>
<symbol id="icon-song" viewBox="0 0 60 60"><polygon points="17.39 9.87 17.39 41.23 16.95 40.98 13.39 40.98 10.28 42.76 8.5 45.87 8.5 49.43 10.28 52.54 13.39 54.31 16.95 54.31 20.05 52.54 21.83 49.43 21.83 47.65 21.83 45.87 21.83 18.14 44.06 14.44 44.06 36.79 43.61 36.54 40.05 36.54 36.95 38.31 35.17 41.42 35.17 44.98 36.95 48.09 40.05 49.87 43.61 49.87 46.72 48.09 48.5 44.98 48.5 43.2 48.5 41.42 48.5 13.7 48.5 5.43 48.5 4.68 17.39 9.87"/></symbol>
<symbol id="icon-player-popup" viewBox="0 0 60 60"><path d="M23,4V15H4V56H45V37H56V4ZM41,52H8V19H23V37H41ZM32.7,28.44l.79-6.25h0l-.77-1.71.83-1.71-.82-6.21,14.71,8Z"/></symbol>
<symbol id="icon-download" viewBox="0 0 60 60"><polygon points="36 4 36 8 52 8 52 52 8 52 8 8 24 8 24 4 4 4 4 56 56 56 56 4 36 4"/><polygon points="41.02 23.29 32 33.81 32 4 28 4 28 33.81 18.98 23.29 16.42 25.54 28.8 40 31.2 40 43.58 25.54 41.02 23.29"/></symbol>
<symbol id="icon-edit" viewBox="0 0 60 60"><path d="M40,3,4,39V56H21L57,20ZM8.74,39.91l5.17-5.17L25.26,46.09l-5.17,5.17ZM23.83,39,47.09,15.74,51.34,20,28.09,43.26ZM44.26,12.91,21,36.17l-4.26-4.26L40,8.66Z"/></symbol>
<symbol id="icon-menu" viewBox="0 0 60 60"><path d="M8,29.84l.13.43h.05l.13-.43L10.64,26h1.61v8H10.5V29.74l.13-.75h-.05l-.29.74L8.72,32.29H7.53L6,29.73,5.67,29h0l.13.75V34H4V26H5.61Z"/><path d="M20.88,26h5.56v1.63H22.63V29H26v1.63H22.63v1.73h3.81V34H20.88Z"/><path d="M36.82,34H35.07V26h1.57l2.62,4.2.3.75h0l-.12-.76V26h1.75v8H39.66L37,29.8l-.29-.75h-.05l.13.76Z"/><path d="M49.86,32.57V26H51.6v5.92l.46.45H53.8l.45-.45V26H56v6.57L54.56,34H51.3Z"/></symbol>
<symbol id="icon-podcast-post" viewBox="0 0 60 60"><rect x="4" y="36" width="52" height="4"/><rect x="4" y="44" width="52" height="4"/><rect x="4" y="52" width="40" height="4"/><path d="M4,4V32H56V4ZM23.6,25.49l.75-5.87h0L23.63,18l.77-1.61-.77-5.84L37.47,18Z"/></symbol>
<symbol id="icon-rss" viewBox="0 0 60 60"><path d="M44.92,4H15.08A11.08,11.08,0,0,0,4,15.09V44.91A11.09,11.09,0,0,0,15.08,56H44.92A11.09,11.09,0,0,0,56,44.91V15.09A11.08,11.08,0,0,0,44.92,4ZM17.23,47.5A4.74,4.74,0,1,1,22,42.77,4.73,4.73,0,0,1,17.23,47.5Zm17.3,0H29.67A17.17,17.17,0,0,0,12.5,30.33V25.47a.94.94,0,0,1,1-.94,23,23,0,0,1,22,22A.94.94,0,0,1,34.53,47.5Zm12.66,0H42A29.53,29.53,0,0,0,12.5,18V12.81a.8.8,0,0,1,.81-.8A35.55,35.55,0,0,1,48,46.69.8.8,0,0,1,47.19,47.5Z"/></symbol>
</defs>
</svg>
